<svg xmlns="http://www.w3.org/2000/svg" xmlns:xlink="http://www.w3.org/1999/xlink" version="1.1" x="0px" y="0px" width="30px" height="30px" viewBox="0 0 595.28 841.89" enable-background="new 0 0 595.28 841.89" xml:space="preserve">
	<rect width="595.28" height="841.89"/>
<rect x="-50000" y="-50000" width="100000" height="100000" fill="#000000"/><text x="100" y="100" style="text-anchor: middle;dominant-baseline: hanging;" fill="#FFFFFF" font-family="'Helvetica'" font-size="30">30 x 30</text><g id="Layer_2">
	<path fill="#FFFFFF" d="M117.097,588.99c6.54-2.852,54.327,3.366,56.73,6.491s-4.808,91.826-6.01,93.509s-4.567,10.338-6.73,11.299   s-7.211-18.51-8.654-18.51s-5.529,20.192-7.933,20.433s-6.971-6.972-8.654-6.972s-12.5,25.722-15.625,25.48   s-2.404-18.028-5.289-24.76s-3.365-10.098-4.086-16.106s-1.955-26.682-1.955-34.134S107.723,593.078,117.097,588.99z"/>
	<path fill="#FFFFFF" d="M200.49,597.642c3.203-4.271,59.856,0,62.02,5.048s-8.173,49.039-8.173,57.452s0,30.413-1.202,34.98   s-1.203,14.904-4.808,15.625s-10.577-18.029-12.74-18.27s-7.692,13.702-10.817,15.145s-9.375-12.499-11.058-13.221   s-9.616-0.125-11.539-1.567s-4.327-31.731-4.327-41.827S198.326,600.526,200.49,597.642z"/>
	<path fill="#FFFFFF" d="M287.83,604.998c1.75-4.072,51.156-14.432,55.578-11.522c4.422,2.911,9.395,28.974,7.826,36.877   c-1.57,7.904-6.211,41.282-5.485,45.797c0.728,4.516,7.372,20.627,5.706,25.4c-1.664,4.771-4.653-5.061-9.008-5.078   c-4.35-0.016-3.51,7.833-4.729,7.741c-1.218-0.092-7.908-6.386-10.791-6.077c-2.882,0.31-5.086,6.804-9.524,8.261   s-18.796-4.283-21.97-6.845C292.256,696.989,286.09,609.053,287.83,604.998z"/>
	<path fill="#FFFFFF" d="M442.78,591.276c-3.972-4.254-63.193-1.733-65.356,2.739s1.683,70.097,2.645,75.626   s-0.962,16.827,0.48,20.192s6.251,7.212,8.654,7.452s5.529-11.058,7.452-11.058s3.605,5.529,6.49,6.01s9.855-14.173,12.5-13.933   s5.25,18.51,8.855,20.433s3.615-5.29,6.26-5.049s4.808,6.73,8.173,7.452s6.934-5.048,6.934-6.49S446.146,594.882,442.78,591.276z"/>
	<path fill="#FFFFFF" d="M277.75,120.438c73.438,0,146.875,18.75,157.812,32.812s14.062,389.062,9.375,398.438   s-112.5,28.125-167.188,28.125s-162.5-18.75-167.188-28.125S109,167.312,119.938,153.25S204.312,120.438,277.75,120.438z    M238.25,274.921c0-5.457-4.464-9.921-9.921-9.921h-66.157c-5.457,0-9.921,4.464-9.921,9.921l-2,77.157   c0,5.457,4.464,9.921,9.921,9.921h68.157c5.457,0,9.921-4.464,9.921-9.921V274.921z M403.25,274.921   c0-5.457-4.465-9.921-9.922-9.921h-66.156c-5.457,0-9.922,4.464-9.922,9.921v77.157c0,5.457,4.465,9.921,9.922,9.921h68.156   c5.457,0,9.922-4.464,9.922-9.921L403.25,274.921z M243.972,436c7.264,7.158,18.75,1,22.417-3s10-25.333,7.333-37.333   s-6.333-11.333-9-10.333s-4.667,11-10,16.333s-11.333,10-13.333,16C239.389,423.666,238.222,430.332,243.972,436z M313.053,417.667   c-2-6-8-10.667-13.334-16c-5.333-5.333-7.333-15.333-10-16.333s-6.333-1.667-9,10.333S284.386,429,288.053,433   s15.152,10.158,22.416,3C316.219,430.332,315.053,423.666,313.053,417.667z"/>
</g>
</svg>
