<svg xmlns="http://www.w3.org/2000/svg" xmlns:xlink="http://www.w3.org/1999/xlink" version="1.1" x="0px" y="0px" width="30px" height="30px" viewBox="0 0 595.28 841.89" enable-background="new 0 0 595.28 841.89" xml:space="preserve">
	<rect width="595.28" height="841.89"/>
<rect x="-50000" y="-50000" width="100000" height="100000" fill="#FF0000"/><text x="100" y="100" style="text-anchor: middle;dominant-baseline: hanging;" fill="#FFFFFF" font-family="'Helvetica'" font-size="30">30 x 30</text><g id="Layer_1">
	<path fill="#FFFFFF" d="M274.5,597.821c-3.401,2.113-5.5,8.679-5.5,12.179s5,101.5,7.5,102.5s15,3.5,17,0S284,609,282.5,607   S277.182,596.154,274.5,597.821z"/>
	<path fill="#FFFFFF" d="M293.733,595c2.928,0.286,7.267,4,8.267,6.5s18,98,15.5,100s-14.762,5.896-18.859,4.5   c-4.099-1.396-12.141-97-11.141-99.5S291.465,594.778,293.733,595z"/>
	<path fill="#FFFFFF" d="M320.5,587c-4.131,1.784-13.5,10.5-14,13s14.5,94,16.5,97.5s24-7,26-9s-13.5-90.008-15.5-93.504   S324.709,585.183,320.5,587z"/>
	<path fill="#FFFFFF" d="M358.5,580.5c-5.244,1.731-18,12.492-18.5,14.496S351,681,353,681.5s23-21.084,23.5-25.542   s-5-70.958-7-72.958S361.529,579.5,358.5,580.5z"/>
	<path fill="#FFFFFF" d="M271,714.303c-2.094,3.278-24.5,3.303-27.5,0s-8-114.811-7-119.307S243,583.5,246,583.5s16.5,20,17,23.5   S274,709.605,271,714.303z"/>
	<path fill="#FFFFFF" d="M221,575c-2.931,0.641-9,2.363-10.5,5.182S207,667.5,210.5,670s20,24,23,21s-1-90.008-2.5-96.004   S225.438,574.03,221,575z"/>
	<path fill="#FFFFFF" d="M203.174,498.188l-31.617,17.858c-19.541-9.601-32.151-25.104-37.948-43.945l18.84-18.841   c-36.232-23.188-50.725-39.13-64.964-67.299l-22.958-2.979c-3.167-15.451-4.832-31.45-4.832-47.837s1.665-32.387,4.832-47.838   l22.958-2.979c9.854-40.701,31.263-76.887,60.578-104.874l-8.906-21.333c23.676-21.079,51.601-37.484,82.339-47.756l14.038,18.381   c19.375-5.729,39.884-8.818,61.117-8.818s41.741,3.09,61.116,8.818l14.038-18.381c30.738,10.273,58.663,26.678,82.339,47.756   l-8.905,21.333c29.315,27.986,50.725,64.173,60.579,104.874l22.958,2.979c3.167,15.451,4.832,31.45,4.832,47.838   s-1.665,32.386-4.832,47.837l-23.043,4.004c-14.239,28.169-28.816,45.136-65.049,68.324l18.84,18.841   c-5.797,18.841-18.406,34.345-37.947,43.945l-36.617-18.858c-19.376,5.729,2.729,56.493-7.11,73.949   c-2.763,4.902-6.817-1.379-23.168,1.034c-5.214,0.77-10.889,12.416-16.878,12.942c-5.989,0.525-12.292-9.069-18.764-8.782   c-4.61,0.204-9.306,13.35-14.034,13.436c-3.657,0.066-8.334-9.903-12.006-9.907c-3.18-0.004-5.356,15.967-8.513,15.911   c-3.183-0.057-5.347-13.14-8.474-13.248c-3.714-0.13-6.376,9.704-9.96,9.501c-5.426-0.308-12.671-18.698-17.639-19.172   c-4.84-0.461-9.417,8.75-13.644,5.885c-4.227-2.866-8.103-11.809-11.541-12.576c-8.664-1.934-14.543,4.655-16.229,1.789   C197.979,556.265,222.549,503.917,203.174,498.188z M293.733,418.5c-3.635-3.895-15.733,25-16.733,36s-6,55.5-3,62.5   s5.232,10,7.366,10s8.134-33,8.634-39s8.28-36.5,7.641-42C297,440.5,297.466,422.5,293.733,418.5z M302.583,418.142   c-3.582,0.358-0.917,44.858,0,51.358s4.417,52.5,5.917,55s7.502-2,9.251-7.5S316,461,315.5,454.5s1-24.5-1-27.5   S306.166,417.783,302.583,418.142z M138,331c-15.838,8.799-2,45.5,10,53s57.74,31,85.37,31.5s40.862-4,44.996-14.5   s15.6-47.5,12.367-56s-5.233-13.5-29.233-20.5s-49.5-4.5-62.5-4S151.5,323.5,138,331z M398.787,320.5c-13-0.5-38.5-3-62.5,4   s-26,12-29.232,20.5s8.232,45.5,12.367,56c4.133,10.5,17.365,15,44.996,14.5c27.629-0.5,73.369-24,85.369-31.5s25.838-44.201,10-53   C446.287,323.5,411.787,321,398.787,320.5z"/>
</g>
</svg>
