<?xml version="1.0" encoding="utf-8"?>
<!-- Generator: Adobe Illustrator 21.0.0, SVG Export Plug-In . SVG Version: 6.00 Build 0)  -->
<svg version="1.1" id="Layer_1" xmlns="http://www.w3.org/2000/svg" xmlns:xlink="http://www.w3.org/1999/xlink" x="0px" y="0px"
	 viewBox="0 0 1920 1080" style="enable-background:new 0 0 1920 1080;" xml:space="preserve">
<style type="text/css">
	.st0{fill:#E8EBF0;}
	.st1{fill:#D8DBE1;}
	.st2{fill:#525863;}
</style>
<g>
	<path class="st0" d="M588.7,723.1c1.3,20.5,17.8,18.7,37.9,18.7h667.1c20.1,0,36.4,1.8,37.7-18.7H588.7z"/>
	<path class="st1" d="M905,722.8c1.2,6,6.5,10.5,12.9,10.5h84.2c6.3,0,11.6-4.5,12.9-10.5H905z"/>
	<path class="st2" d="M1238.5,336H681.5c-11.3,0-20.4,8.9-20.4,19.9v366.2H1259V355.9C1259,344.9,1249.8,336,1238.5,336z
		 M1246.1,707.5c0,3.4-2.8,6.2-6.2,6.2H680.1c-3.4,0-6.2-2.8-6.2-6.2V356.4c0-4.2,3.4-7.5,7.5-7.5h558.5c3.4,0,6.2,2.8,6.2,6.2
		V707.5z"/>
</g>
</svg>
